<?xml version="1.0" encoding="utf-8" standalone="no"?>
<!DOCTYPE svg PUBLIC "-//W3C//DTD SVG 1.1//EN"
  "http://www.w3.org/Graphics/SVG/1.1/DTD/svg11.dtd">
<svg xmlns:xlink="http://www.w3.org/1999/xlink" width="7200pt" height="28800pt" viewBox="0 0 7200 28800" xmlns="http://www.w3.org/2000/svg" version="1.1">
 <metadata>
  <rdf:RDF xmlns:dc="http://purl.org/dc/elements/1.1/" xmlns:cc="http://creativecommons.org/ns#" xmlns:rdf="http://www.w3.org/1999/02/22-rdf-syntax-ns#">
   <cc:Work>
    <dc:type rdf:resource="http://purl.org/dc/dcmitype/StillImage"/>
    <dc:date>2024-12-02T22:46:33.354343</dc:date>
    <dc:format>image/svg+xml</dc:format>
    <dc:creator>
     <cc:Agent>
      <dc:title>Matplotlib v3.9.2, https://matplotlib.org/</dc:title>
     </cc:Agent>
    </dc:creator>
   </cc:Work>
  </rdf:RDF>
 </metadata>
 <defs>
  <style type="text/css">*{stroke-linejoin: round; stroke-linecap: butt}</style>
 </defs>
 <g id="figure_1">
  <g id="patch_1">
   <path d="M 0 28800 
L 7200 28800 
L 7200 0 
L 0 0 
z
" style="fill: #ffffff"/>
  </g>
  <g id="axes_1">
   <g id="patch_2">
    <path d="M 3719.778165 23177.711616 
Q 3983.69459 21080.001708 4247.750577 18981.18251 
" style="fill: none; stroke: #000000; stroke-linecap: round"/>
    <path d="M 3748.671868 23134.446014 
L 3719.778165 23177.711616 
L 3702.501905 23128.637293 
" style="fill: none; stroke: #000000; stroke-linecap: round"/>
   </g>
   <g id="text_1">
    <g id="patch_3">
     <path d="M 3468.672991 23647.49864 
L 3911.327009 23647.49864 
L 3911.327009 23181.30136 
L 3468.672991 23181.30136 
z
" style="fill: #808080; stroke: #000000; stroke-linejoin: miter"/>
    </g>
    <!--  -->
    <g transform="translate(3690 23316.231583) scale(1.163348 -1.163348)"/>
    <!--   (...)   -->
    <g transform="translate(3515.206922 23446.501141) scale(1.163348 -1.163348)">
     <defs>
      <path id="DejaVuSans-20" transform="scale(0.015625)"/>
      <path id="DejaVuSans-28" d="M 1984 4856 
Q 1566 4138 1362 3434 
Q 1159 2731 1159 2009 
Q 1159 1288 1364 580 
Q 1569 -128 1984 -844 
L 1484 -844 
Q 1016 -109 783 600 
Q 550 1309 550 2009 
Q 550 2706 781 3412 
Q 1013 4119 1484 4856 
L 1984 4856 
z
" transform="scale(0.015625)"/>
      <path id="DejaVuSans-2e" d="M 684 794 
L 1344 794 
L 1344 0 
L 684 0 
L 684 794 
z
" transform="scale(0.015625)"/>
      <path id="DejaVuSans-29" d="M 513 4856 
L 1013 4856 
Q 1481 4119 1714 3412 
Q 1947 2706 1947 2009 
Q 1947 1309 1714 600 
Q 1481 -109 1013 -844 
L 513 -844 
Q 928 -128 1133 580 
Q 1338 1288 1338 2009 
Q 1338 2731 1133 3434 
Q 928 4138 513 4856 
z
" transform="scale(0.015625)"/>
     </defs>
     <use xlink:href="#DejaVuSans-20"/>
     <use xlink:href="#DejaVuSans-20" x="31.787109"/>
     <use xlink:href="#DejaVuSans-28" x="63.574219"/>
     <use xlink:href="#DejaVuSans-2e" x="102.587891"/>
     <use xlink:href="#DejaVuSans-2e" x="134.375"/>
     <use xlink:href="#DejaVuSans-2e" x="166.162109"/>
     <use xlink:href="#DejaVuSans-29" x="197.949219"/>
     <use xlink:href="#DejaVuSans-20" x="236.962891"/>
     <use xlink:href="#DejaVuSans-20" x="268.75"/>
    </g>
    <!--  -->
    <g transform="translate(3690 23576.7707) scale(1.163348 -1.163348)"/>
   </g>
   <g id="patch_4">
    <path d="M 4776.221835 23177.711616 
Q 4512.30541 21080.001708 4248.249423 18981.18251 
" style="fill: none; stroke: #000000; stroke-linecap: round"/>
    <path d="M 4793.498095 23128.637293 
L 4776.221835 23177.711616 
L 4747.328132 23134.446014 
" style="fill: none; stroke: #000000; stroke-linecap: round"/>
   </g>
   <g id="text_2">
    <g id="patch_5">
     <path d="M 4584.672991 23647.49864 
L 5027.327009 23647.49864 
L 5027.327009 23181.30136 
L 4584.672991 23181.30136 
z
" style="fill: #808080; stroke: #000000; stroke-linejoin: miter"/>
    </g>
    <!--  -->
    <g transform="translate(4806 23316.231583) scale(1.163348 -1.163348)"/>
    <!--   (...)   -->
    <g transform="translate(4631.206922 23446.501141) scale(1.163348 -1.163348)">
     <use xlink:href="#DejaVuSans-20"/>
     <use xlink:href="#DejaVuSans-20" x="31.787109"/>
     <use xlink:href="#DejaVuSans-28" x="63.574219"/>
     <use xlink:href="#DejaVuSans-2e" x="102.587891"/>
     <use xlink:href="#DejaVuSans-2e" x="134.375"/>
     <use xlink:href="#DejaVuSans-2e" x="166.162109"/>
     <use xlink:href="#DejaVuSans-29" x="197.949219"/>
     <use xlink:href="#DejaVuSans-20" x="236.962891"/>
     <use xlink:href="#DejaVuSans-20" x="268.75"/>
    </g>
    <!--  -->
    <g transform="translate(4806 23576.7707) scale(1.163348 -1.163348)"/>
   </g>
   <g id="patch_6">
    <path d="M 2045.778165 18742.511616 
Q 2309.69459 16644.801708 2573.750577 14545.98251 
" style="fill: none; stroke: #000000; stroke-linecap: round"/>
    <path d="M 2074.671868 18699.246014 
L 2045.778165 18742.511616 
L 2028.501905 18693.437293 
" style="fill: none; stroke: #000000; stroke-linecap: round"/>
   </g>
   <g id="text_3">
    <g id="patch_7">
     <path d="M 1567.947318 19212.29864 
L 2464.052682 19212.29864 
L 2464.052682 18746.10136 
L 1567.947318 18746.10136 
z
" style="fill: #fcf1e9; stroke: #000000; stroke-linejoin: miter"/>
    </g>
    <!-- gini = 0.498 -->
    <g transform="translate(1657.652377 18881.031583) scale(1.163348 -1.163348)">
     <defs>
      <path id="DejaVuSans-67" d="M 2906 1791 
Q 2906 2416 2648 2759 
Q 2391 3103 1925 3103 
Q 1463 3103 1205 2759 
Q 947 2416 947 1791 
Q 947 1169 1205 825 
Q 1463 481 1925 481 
Q 2391 481 2648 825 
Q 2906 1169 2906 1791 
z
M 3481 434 
Q 3481 -459 3084 -895 
Q 2688 -1331 1869 -1331 
Q 1566 -1331 1297 -1286 
Q 1028 -1241 775 -1147 
L 775 -588 
Q 1028 -725 1275 -790 
Q 1522 -856 1778 -856 
Q 2344 -856 2625 -561 
Q 2906 -266 2906 331 
L 2906 616 
Q 2728 306 2450 153 
Q 2172 0 1784 0 
Q 1141 0 747 490 
Q 353 981 353 1791 
Q 353 2603 747 3093 
Q 1141 3584 1784 3584 
Q 2172 3584 2450 3431 
Q 2728 3278 2906 2969 
L 2906 3500 
L 3481 3500 
L 3481 434 
z
" transform="scale(0.015625)"/>
      <path id="DejaVuSans-69" d="M 603 3500 
L 1178 3500 
L 1178 0 
L 603 0 
L 603 3500 
z
M 603 4863 
L 1178 4863 
L 1178 4134 
L 603 4134 
L 603 4863 
z
" transform="scale(0.015625)"/>
      <path id="DejaVuSans-6e" d="M 3513 2113 
L 3513 0 
L 2938 0 
L 2938 2094 
Q 2938 2591 2744 2837 
Q 2550 3084 2163 3084 
Q 1697 3084 1428 2787 
Q 1159 2491 1159 1978 
L 1159 0 
L 581 0 
L 581 3500 
L 1159 3500 
L 1159 2956 
Q 1366 3272 1645 3428 
Q 1925 3584 2291 3584 
Q 2894 3584 3203 3211 
Q 3513 2838 3513 2113 
z
" transform="scale(0.015625)"/>
      <path id="DejaVuSans-3d" d="M 678 2906 
L 4684 2906 
L 4684 2381 
L 678 2381 
L 678 2906 
z
M 678 1631 
L 4684 1631 
L 4684 1100 
L 678 1100 
L 678 1631 
z
" transform="scale(0.015625)"/>
      <path id="DejaVuSans-30" d="M 2034 4250 
Q 1547 4250 1301 3770 
Q 1056 3291 1056 2328 
Q 1056 1369 1301 889 
Q 1547 409 2034 409 
Q 2525 409 2770 889 
Q 3016 1369 3016 2328 
Q 3016 3291 2770 3770 
Q 2525 4250 2034 4250 
z
M 2034 4750 
Q 2819 4750 3233 4129 
Q 3647 3509 3647 2328 
Q 3647 1150 3233 529 
Q 2819 -91 2034 -91 
Q 1250 -91 836 529 
Q 422 1150 422 2328 
Q 422 3509 836 4129 
Q 1250 4750 2034 4750 
z
" transform="scale(0.015625)"/>
      <path id="DejaVuSans-34" d="M 2419 4116 
L 825 1625 
L 2419 1625 
L 2419 4116 
z
M 2253 4666 
L 3047 4666 
L 3047 1625 
L 3713 1625 
L 3713 1100 
L 3047 1100 
L 3047 0 
L 2419 0 
L 2419 1100 
L 313 1100 
L 313 1709 
L 2253 4666 
z
" transform="scale(0.015625)"/>
      <path id="DejaVuSans-39" d="M 703 97 
L 703 672 
Q 941 559 1184 500 
Q 1428 441 1663 441 
Q 2288 441 2617 861 
Q 2947 1281 2994 2138 
Q 2813 1869 2534 1725 
Q 2256 1581 1919 1581 
Q 1219 1581 811 2004 
Q 403 2428 403 3163 
Q 403 3881 828 4315 
Q 1253 4750 1959 4750 
Q 2769 4750 3195 4129 
Q 3622 3509 3622 2328 
Q 3622 1225 3098 567 
Q 2575 -91 1691 -91 
Q 1453 -91 1209 -44 
Q 966 3 703 97 
z
M 1959 2075 
Q 2384 2075 2632 2365 
Q 2881 2656 2881 3163 
Q 2881 3666 2632 3958 
Q 2384 4250 1959 4250 
Q 1534 4250 1286 3958 
Q 1038 3666 1038 3163 
Q 1038 2656 1286 2365 
Q 1534 2075 1959 2075 
z
" transform="scale(0.015625)"/>
      <path id="DejaVuSans-38" d="M 2034 2216 
Q 1584 2216 1326 1975 
Q 1069 1734 1069 1313 
Q 1069 891 1326 650 
Q 1584 409 2034 409 
Q 2484 409 2743 651 
Q 3003 894 3003 1313 
Q 3003 1734 2745 1975 
Q 2488 2216 2034 2216 
z
M 1403 2484 
Q 997 2584 770 2862 
Q 544 3141 544 3541 
Q 544 4100 942 4425 
Q 1341 4750 2034 4750 
Q 2731 4750 3128 4425 
Q 3525 4100 3525 3541 
Q 3525 3141 3298 2862 
Q 3072 2584 2669 2484 
Q 3125 2378 3379 2068 
Q 3634 1759 3634 1313 
Q 3634 634 3220 271 
Q 2806 -91 2034 -91 
Q 1263 -91 848 271 
Q 434 634 434 1313 
Q 434 1759 690 2068 
Q 947 2378 1403 2484 
z
M 1172 3481 
Q 1172 3119 1398 2916 
Q 1625 2713 2034 2713 
Q 2441 2713 2670 2916 
Q 2900 3119 2900 3481 
Q 2900 3844 2670 4047 
Q 2441 4250 2034 4250 
Q 1625 4250 1398 4047 
Q 1172 3844 1172 3481 
z
" transform="scale(0.015625)"/>
     </defs>
     <use xlink:href="#DejaVuSans-67"/>
     <use xlink:href="#DejaVuSans-69" x="63.476562"/>
     <use xlink:href="#DejaVuSans-6e" x="91.259766"/>
     <use xlink:href="#DejaVuSans-69" x="154.638672"/>
     <use xlink:href="#DejaVuSans-20" x="182.421875"/>
     <use xlink:href="#DejaVuSans-3d" x="214.208984"/>
     <use xlink:href="#DejaVuSans-20" x="297.998047"/>
     <use xlink:href="#DejaVuSans-30" x="329.785156"/>
     <use xlink:href="#DejaVuSans-2e" x="393.408203"/>
     <use xlink:href="#DejaVuSans-34" x="425.195312"/>
     <use xlink:href="#DejaVuSans-39" x="488.818359"/>
     <use xlink:href="#DejaVuSans-38" x="552.441406"/>
    </g>
    <!-- samples = 11 -->
    <g transform="translate(1614.481249 19011.301141) scale(1.163348 -1.163348)">
     <defs>
      <path id="DejaVuSans-73" d="M 2834 3397 
L 2834 2853 
Q 2591 2978 2328 3040 
Q 2066 3103 1784 3103 
Q 1356 3103 1142 2972 
Q 928 2841 928 2578 
Q 928 2378 1081 2264 
Q 1234 2150 1697 2047 
L 1894 2003 
Q 2506 1872 2764 1633 
Q 3022 1394 3022 966 
Q 3022 478 2636 193 
Q 2250 -91 1575 -91 
Q 1294 -91 989 -36 
Q 684 19 347 128 
L 347 722 
Q 666 556 975 473 
Q 1284 391 1588 391 
Q 1994 391 2212 530 
Q 2431 669 2431 922 
Q 2431 1156 2273 1281 
Q 2116 1406 1581 1522 
L 1381 1569 
Q 847 1681 609 1914 
Q 372 2147 372 2553 
Q 372 3047 722 3315 
Q 1072 3584 1716 3584 
Q 2034 3584 2315 3537 
Q 2597 3491 2834 3397 
z
" transform="scale(0.015625)"/>
      <path id="DejaVuSans-61" d="M 2194 1759 
Q 1497 1759 1228 1600 
Q 959 1441 959 1056 
Q 959 750 1161 570 
Q 1363 391 1709 391 
Q 2188 391 2477 730 
Q 2766 1069 2766 1631 
L 2766 1759 
L 2194 1759 
z
M 3341 1997 
L 3341 0 
L 2766 0 
L 2766 531 
Q 2569 213 2275 61 
Q 1981 -91 1556 -91 
Q 1019 -91 701 211 
Q 384 513 384 1019 
Q 384 1609 779 1909 
Q 1175 2209 1959 2209 
L 2766 2209 
L 2766 2266 
Q 2766 2663 2505 2880 
Q 2244 3097 1772 3097 
Q 1472 3097 1187 3025 
Q 903 2953 641 2809 
L 641 3341 
Q 956 3463 1253 3523 
Q 1550 3584 1831 3584 
Q 2591 3584 2966 3190 
Q 3341 2797 3341 1997 
z
" transform="scale(0.015625)"/>
      <path id="DejaVuSans-6d" d="M 3328 2828 
Q 3544 3216 3844 3400 
Q 4144 3584 4550 3584 
Q 5097 3584 5394 3201 
Q 5691 2819 5691 2113 
L 5691 0 
L 5113 0 
L 5113 2094 
Q 5113 2597 4934 2840 
Q 4756 3084 4391 3084 
Q 3944 3084 3684 2787 
Q 3425 2491 3425 1978 
L 3425 0 
L 2847 0 
L 2847 2094 
Q 2847 2600 2669 2842 
Q 2491 3084 2119 3084 
Q 1678 3084 1418 2786 
Q 1159 2488 1159 1978 
L 1159 0 
L 581 0 
L 581 3500 
L 1159 3500 
L 1159 2956 
Q 1356 3278 1631 3431 
Q 1906 3584 2284 3584 
Q 2666 3584 2933 3390 
Q 3200 3197 3328 2828 
z
" transform="scale(0.015625)"/>
      <path id="DejaVuSans-70" d="M 1159 525 
L 1159 -1331 
L 581 -1331 
L 581 3500 
L 1159 3500 
L 1159 2969 
Q 1341 3281 1617 3432 
Q 1894 3584 2278 3584 
Q 2916 3584 3314 3078 
Q 3713 2572 3713 1747 
Q 3713 922 3314 415 
Q 2916 -91 2278 -91 
Q 1894 -91 1617 61 
Q 1341 213 1159 525 
z
M 3116 1747 
Q 3116 2381 2855 2742 
Q 2594 3103 2138 3103 
Q 1681 3103 1420 2742 
Q 1159 2381 1159 1747 
Q 1159 1113 1420 752 
Q 1681 391 2138 391 
Q 2594 391 2855 752 
Q 3116 1113 3116 1747 
z
" transform="scale(0.015625)"/>
      <path id="DejaVuSans-6c" d="M 603 4863 
L 1178 4863 
L 1178 0 
L 603 0 
L 603 4863 
z
" transform="scale(0.015625)"/>
      <path id="DejaVuSans-65" d="M 3597 1894 
L 3597 1613 
L 953 1613 
Q 991 1019 1311 708 
Q 1631 397 2203 397 
Q 2534 397 2845 478 
Q 3156 559 3463 722 
L 3463 178 
Q 3153 47 2828 -22 
Q 2503 -91 2169 -91 
Q 1331 -91 842 396 
Q 353 884 353 1716 
Q 353 2575 817 3079 
Q 1281 3584 2069 3584 
Q 2775 3584 3186 3129 
Q 3597 2675 3597 1894 
z
M 3022 2063 
Q 3016 2534 2758 2815 
Q 2500 3097 2075 3097 
Q 1594 3097 1305 2825 
Q 1016 2553 972 2059 
L 3022 2063 
z
" transform="scale(0.015625)"/>
      <path id="DejaVuSans-31" d="M 794 531 
L 1825 531 
L 1825 4091 
L 703 3866 
L 703 4441 
L 1819 4666 
L 2450 4666 
L 2450 531 
L 3481 531 
L 3481 0 
L 794 0 
L 794 531 
z
" transform="scale(0.015625)"/>
     </defs>
     <use xlink:href="#DejaVuSans-73"/>
     <use xlink:href="#DejaVuSans-61" x="52.099609"/>
     <use xlink:href="#DejaVuSans-6d" x="113.378906"/>
     <use xlink:href="#DejaVuSans-70" x="210.791016"/>
     <use xlink:href="#DejaVuSans-6c" x="274.267578"/>
     <use xlink:href="#DejaVuSans-65" x="302.050781"/>
     <use xlink:href="#DejaVuSans-73" x="363.574219"/>
     <use xlink:href="#DejaVuSans-20" x="415.673828"/>
     <use xlink:href="#DejaVuSans-3d" x="447.460938"/>
     <use xlink:href="#DejaVuSans-20" x="531.25"/>
     <use xlink:href="#DejaVuSans-31" x="563.037109"/>
     <use xlink:href="#DejaVuSans-31" x="626.660156"/>
    </g>
    <!-- value = [9, 8] -->
    <g transform="translate(1615.01748 19141.5707) scale(1.163348 -1.163348)">
     <defs>
      <path id="DejaVuSans-76" d="M 191 3500 
L 800 3500 
L 1894 563 
L 2988 3500 
L 3597 3500 
L 2284 0 
L 1503 0 
L 191 3500 
z
" transform="scale(0.015625)"/>
      <path id="DejaVuSans-75" d="M 544 1381 
L 544 3500 
L 1119 3500 
L 1119 1403 
Q 1119 906 1312 657 
Q 1506 409 1894 409 
Q 2359 409 2629 706 
Q 2900 1003 2900 1516 
L 2900 3500 
L 3475 3500 
L 3475 0 
L 2900 0 
L 2900 538 
Q 2691 219 2414 64 
Q 2138 -91 1772 -91 
Q 1169 -91 856 284 
Q 544 659 544 1381 
z
M 1991 3584 
L 1991 3584 
z
" transform="scale(0.015625)"/>
      <path id="DejaVuSans-5b" d="M 550 4863 
L 1875 4863 
L 1875 4416 
L 1125 4416 
L 1125 -397 
L 1875 -397 
L 1875 -844 
L 550 -844 
L 550 4863 
z
" transform="scale(0.015625)"/>
      <path id="DejaVuSans-2c" d="M 750 794 
L 1409 794 
L 1409 256 
L 897 -744 
L 494 -744 
L 750 256 
L 750 794 
z
" transform="scale(0.015625)"/>
      <path id="DejaVuSans-5d" d="M 1947 4863 
L 1947 -844 
L 622 -844 
L 622 -397 
L 1369 -397 
L 1369 4416 
L 622 4416 
L 622 4863 
L 1947 4863 
z
" transform="scale(0.015625)"/>
     </defs>
     <use xlink:href="#DejaVuSans-76"/>
     <use xlink:href="#DejaVuSans-61" x="59.179688"/>
     <use xlink:href="#DejaVuSans-6c" x="120.458984"/>
     <use xlink:href="#DejaVuSans-75" x="148.242188"/>
     <use xlink:href="#DejaVuSans-65" x="211.621094"/>
     <use xlink:href="#DejaVuSans-20" x="273.144531"/>
     <use xlink:href="#DejaVuSans-3d" x="304.931641"/>
     <use xlink:href="#DejaVuSans-20" x="388.720703"/>
     <use xlink:href="#DejaVuSans-5b" x="420.507812"/>
     <use xlink:href="#DejaVuSans-39" x="459.521484"/>
     <use xlink:href="#DejaVuSans-2c" x="523.144531"/>
     <use xlink:href="#DejaVuSans-20" x="554.931641"/>
     <use xlink:href="#DejaVuSans-38" x="586.71875"/>
     <use xlink:href="#DejaVuSans-5d" x="650.341797"/>
    </g>
   </g>
   <g id="patch_8">
    <path d="M 3102.221835 18742.511616 
Q 2838.30541 16644.801708 2574.249423 14545.98251 
" style="fill: none; stroke: #000000; stroke-linecap: round"/>
    <path d="M 3119.498095 18693.437293 
L 3102.221835 18742.511616 
L 3073.328132 18699.246014 
" style="fill: none; stroke: #000000; stroke-linecap: round"/>
   </g>
   <g id="text_4">
    <g id="patch_9">
     <path d="M 2647.474532 19212.29864 
L 3616.525468 19212.29864 
L 3616.525468 18746.10136 
L 2647.474532 18746.10136 
z
" style="fill: #fae6d7; stroke: #000000; stroke-linejoin: miter"/>
    </g>
    <!-- gini = 0.494 -->
    <g transform="translate(2773.652377 18881.031583) scale(1.163348 -1.163348)">
     <use xlink:href="#DejaVuSans-67"/>
     <use xlink:href="#DejaVuSans-69" x="63.476562"/>
     <use xlink:href="#DejaVuSans-6e" x="91.259766"/>
     <use xlink:href="#DejaVuSans-69" x="154.638672"/>
     <use xlink:href="#DejaVuSans-20" x="182.421875"/>
     <use xlink:href="#DejaVuSans-3d" x="214.208984"/>
     <use xlink:href="#DejaVuSans-20" x="297.998047"/>
     <use xlink:href="#DejaVuSans-30" x="329.785156"/>
     <use xlink:href="#DejaVuSans-2e" x="393.408203"/>
     <use xlink:href="#DejaVuSans-34" x="425.195312"/>
     <use xlink:href="#DejaVuSans-39" x="488.818359"/>
     <use xlink:href="#DejaVuSans-34" x="552.441406"/>
    </g>
    <!-- samples = 10 -->
    <g transform="translate(2730.481249 19011.301141) scale(1.163348 -1.163348)">
     <use xlink:href="#DejaVuSans-73"/>
     <use xlink:href="#DejaVuSans-61" x="52.099609"/>
     <use xlink:href="#DejaVuSans-6d" x="113.378906"/>
     <use xlink:href="#DejaVuSans-70" x="210.791016"/>
     <use xlink:href="#DejaVuSans-6c" x="274.267578"/>
     <use xlink:href="#DejaVuSans-65" x="302.050781"/>
     <use xlink:href="#DejaVuSans-73" x="363.574219"/>
     <use xlink:href="#DejaVuSans-20" x="415.673828"/>
     <use xlink:href="#DejaVuSans-3d" x="447.460938"/>
     <use xlink:href="#DejaVuSans-20" x="531.25"/>
     <use xlink:href="#DejaVuSans-31" x="563.037109"/>
     <use xlink:href="#DejaVuSans-30" x="626.660156"/>
    </g>
    <!-- value = [10, 8] -->
    <g transform="translate(2694.008463 19141.5707) scale(1.163348 -1.163348)">
     <use xlink:href="#DejaVuSans-76"/>
     <use xlink:href="#DejaVuSans-61" x="59.179688"/>
     <use xlink:href="#DejaVuSans-6c" x="120.458984"/>
     <use xlink:href="#DejaVuSans-75" x="148.242188"/>
     <use xlink:href="#DejaVuSans-65" x="211.621094"/>
     <use xlink:href="#DejaVuSans-20" x="273.144531"/>
     <use xlink:href="#DejaVuSans-3d" x="304.931641"/>
     <use xlink:href="#DejaVuSans-20" x="388.720703"/>
     <use xlink:href="#DejaVuSans-5b" x="420.507812"/>
     <use xlink:href="#DejaVuSans-31" x="459.521484"/>
     <use xlink:href="#DejaVuSans-30" x="523.144531"/>
     <use xlink:href="#DejaVuSans-2c" x="586.767578"/>
     <use xlink:href="#DejaVuSans-20" x="618.554688"/>
     <use xlink:href="#DejaVuSans-38" x="650.341797"/>
     <use xlink:href="#DejaVuSans-5d" x="713.964844"/>
    </g>
   </g>
   <g id="patch_10">
    <path d="M 4285.973381 18677.372868 
Q 4545.792148 16612.23273 4805.750477 14545.983304 
" style="fill: none; stroke: #000000; stroke-linecap: round"/>
    <path d="M 4314.867084 18634.107265 
L 4285.973381 18677.372868 
L 4268.697121 18628.298544 
" style="fill: none; stroke: #000000; stroke-linecap: round"/>
   </g>
   <g id="text_5">
    <g id="patch_11">
     <path d="M 3763.474532 19277.433419 
L 4732.525468 19277.433419 
L 4732.525468 18680.966581 
L 3763.474532 18680.966581 
z
" style="fill: #e68641; stroke: #000000; stroke-linejoin: miter"/>
    </g>
    <!-- x[3] &lt;= 0.5 -->
    <g transform="translate(3904.212407 18815.896804) scale(1.163348 -1.163348)">
     <defs>
      <path id="DejaVuSans-78" d="M 3513 3500 
L 2247 1797 
L 3578 0 
L 2900 0 
L 1881 1375 
L 863 0 
L 184 0 
L 1544 1831 
L 300 3500 
L 978 3500 
L 1906 2253 
L 2834 3500 
L 3513 3500 
z
" transform="scale(0.015625)"/>
      <path id="DejaVuSans-33" d="M 2597 2516 
Q 3050 2419 3304 2112 
Q 3559 1806 3559 1356 
Q 3559 666 3084 287 
Q 2609 -91 1734 -91 
Q 1441 -91 1130 -33 
Q 819 25 488 141 
L 488 750 
Q 750 597 1062 519 
Q 1375 441 1716 441 
Q 2309 441 2620 675 
Q 2931 909 2931 1356 
Q 2931 1769 2642 2001 
Q 2353 2234 1838 2234 
L 1294 2234 
L 1294 2753 
L 1863 2753 
Q 2328 2753 2575 2939 
Q 2822 3125 2822 3475 
Q 2822 3834 2567 4026 
Q 2313 4219 1838 4219 
Q 1578 4219 1281 4162 
Q 984 4106 628 3988 
L 628 4550 
Q 988 4650 1302 4700 
Q 1616 4750 1894 4750 
Q 2613 4750 3031 4423 
Q 3450 4097 3450 3541 
Q 3450 3153 3228 2886 
Q 3006 2619 2597 2516 
z
" transform="scale(0.015625)"/>
      <path id="DejaVuSans-3c" d="M 4684 3150 
L 1459 2003 
L 4684 863 
L 4684 294 
L 678 1747 
L 678 2266 
L 4684 3719 
L 4684 3150 
z
" transform="scale(0.015625)"/>
      <path id="DejaVuSans-35" d="M 691 4666 
L 3169 4666 
L 3169 4134 
L 1269 4134 
L 1269 2991 
Q 1406 3038 1543 3061 
Q 1681 3084 1819 3084 
Q 2600 3084 3056 2656 
Q 3513 2228 3513 1497 
Q 3513 744 3044 326 
Q 2575 -91 1722 -91 
Q 1428 -91 1123 -41 
Q 819 9 494 109 
L 494 744 
Q 775 591 1075 516 
Q 1375 441 1709 441 
Q 2250 441 2565 725 
Q 2881 1009 2881 1497 
Q 2881 1984 2565 2268 
Q 2250 2553 1709 2553 
Q 1456 2553 1204 2497 
Q 953 2441 691 2322 
L 691 4666 
z
" transform="scale(0.015625)"/>
     </defs>
     <use xlink:href="#DejaVuSans-78"/>
     <use xlink:href="#DejaVuSans-5b" x="59.179688"/>
     <use xlink:href="#DejaVuSans-33" x="98.193359"/>
     <use xlink:href="#DejaVuSans-5d" x="161.816406"/>
     <use xlink:href="#DejaVuSans-20" x="200.830078"/>
     <use xlink:href="#DejaVuSans-3c" x="232.617188"/>
     <use xlink:href="#DejaVuSans-3d" x="316.40625"/>
     <use xlink:href="#DejaVuSans-20" x="400.195312"/>
     <use xlink:href="#DejaVuSans-30" x="431.982422"/>
     <use xlink:href="#DejaVuSans-2e" x="495.605469"/>
     <use xlink:href="#DejaVuSans-35" x="527.392578"/>
    </g>
    <!-- gini = 0.071 -->
    <g transform="translate(3889.652377 18946.166362) scale(1.163348 -1.163348)">
     <defs>
      <path id="DejaVuSans-37" d="M 525 4666 
L 3525 4666 
L 3525 4397 
L 1831 0 
L 1172 0 
L 2766 4134 
L 525 4134 
L 525 4666 
z
" transform="scale(0.015625)"/>
     </defs>
     <use xlink:href="#DejaVuSans-67"/>
     <use xlink:href="#DejaVuSans-69" x="63.476562"/>
     <use xlink:href="#DejaVuSans-6e" x="91.259766"/>
     <use xlink:href="#DejaVuSans-69" x="154.638672"/>
     <use xlink:href="#DejaVuSans-20" x="182.421875"/>
     <use xlink:href="#DejaVuSans-3d" x="214.208984"/>
     <use xlink:href="#DejaVuSans-20" x="297.998047"/>
     <use xlink:href="#DejaVuSans-30" x="329.785156"/>
     <use xlink:href="#DejaVuSans-2e" x="393.408203"/>
     <use xlink:href="#DejaVuSans-30" x="425.195312"/>
     <use xlink:href="#DejaVuSans-37" x="488.818359"/>
     <use xlink:href="#DejaVuSans-31" x="552.441406"/>
    </g>
    <!-- samples = 34 -->
    <g transform="translate(3846.481249 19076.435921) scale(1.163348 -1.163348)">
     <use xlink:href="#DejaVuSans-73"/>
     <use xlink:href="#DejaVuSans-61" x="52.099609"/>
     <use xlink:href="#DejaVuSans-6d" x="113.378906"/>
     <use xlink:href="#DejaVuSans-70" x="210.791016"/>
     <use xlink:href="#DejaVuSans-6c" x="274.267578"/>
     <use xlink:href="#DejaVuSans-65" x="302.050781"/>
     <use xlink:href="#DejaVuSans-73" x="363.574219"/>
     <use xlink:href="#DejaVuSans-20" x="415.673828"/>
     <use xlink:href="#DejaVuSans-3d" x="447.460938"/>
     <use xlink:href="#DejaVuSans-20" x="531.25"/>
     <use xlink:href="#DejaVuSans-33" x="563.037109"/>
     <use xlink:href="#DejaVuSans-34" x="626.660156"/>
    </g>
    <!-- value = [52, 2] -->
    <g transform="translate(3810.008463 19206.705479) scale(1.163348 -1.163348)">
     <defs>
      <path id="DejaVuSans-32" d="M 1228 531 
L 3431 531 
L 3431 0 
L 469 0 
L 469 531 
Q 828 903 1448 1529 
Q 2069 2156 2228 2338 
Q 2531 2678 2651 2914 
Q 2772 3150 2772 3378 
Q 2772 3750 2511 3984 
Q 2250 4219 1831 4219 
Q 1534 4219 1204 4116 
Q 875 4013 500 3803 
L 500 4441 
Q 881 4594 1212 4672 
Q 1544 4750 1819 4750 
Q 2544 4750 2975 4387 
Q 3406 4025 3406 3419 
Q 3406 3131 3298 2873 
Q 3191 2616 2906 2266 
Q 2828 2175 2409 1742 
Q 1991 1309 1228 531 
z
" transform="scale(0.015625)"/>
     </defs>
     <use xlink:href="#DejaVuSans-76"/>
     <use xlink:href="#DejaVuSans-61" x="59.179688"/>
     <use xlink:href="#DejaVuSans-6c" x="120.458984"/>
     <use xlink:href="#DejaVuSans-75" x="148.242188"/>
     <use xlink:href="#DejaVuSans-65" x="211.621094"/>
     <use xlink:href="#DejaVuSans-20" x="273.144531"/>
     <use xlink:href="#DejaVuSans-3d" x="304.931641"/>
     <use xlink:href="#DejaVuSans-20" x="388.720703"/>
     <use xlink:href="#DejaVuSans-5b" x="420.507812"/>
     <use xlink:href="#DejaVuSans-35" x="459.521484"/>
     <use xlink:href="#DejaVuSans-32" x="523.144531"/>
     <use xlink:href="#DejaVuSans-2c" x="586.767578"/>
     <use xlink:href="#DejaVuSans-20" x="618.554688"/>
     <use xlink:href="#DejaVuSans-32" x="650.341797"/>
     <use xlink:href="#DejaVuSans-5d" x="713.964844"/>
    </g>
   </g>
   <g id="patch_12">
    <path d="M 5334.221835 18742.511616 
Q 5070.30541 16644.801708 4806.249423 14545.98251 
" style="fill: none; stroke: #000000; stroke-linecap: round"/>
    <path d="M 5351.498095 18693.437293 
L 5334.221835 18742.511616 
L 5305.328132 18699.246014 
" style="fill: none; stroke: #000000; stroke-linecap: round"/>
   </g>
   <g id="text_6">
    <g id="patch_13">
     <path d="M 4879.474532 19212.29864 
L 5848.525468 19212.29864 
L 5848.525468 18746.10136 
L 4879.474532 18746.10136 
z
" style="fill: #eead7e; stroke: #000000; stroke-linejoin: miter"/>
    </g>
    <!-- gini = 0.383 -->
    <g transform="translate(5005.652377 18881.031583) scale(1.163348 -1.163348)">
     <use xlink:href="#DejaVuSans-67"/>
     <use xlink:href="#DejaVuSans-69" x="63.476562"/>
     <use xlink:href="#DejaVuSans-6e" x="91.259766"/>
     <use xlink:href="#DejaVuSans-69" x="154.638672"/>
     <use xlink:href="#DejaVuSans-20" x="182.421875"/>
     <use xlink:href="#DejaVuSans-3d" x="214.208984"/>
     <use xlink:href="#DejaVuSans-20" x="297.998047"/>
     <use xlink:href="#DejaVuSans-30" x="329.785156"/>
     <use xlink:href="#DejaVuSans-2e" x="393.408203"/>
     <use xlink:href="#DejaVuSans-33" x="425.195312"/>
     <use xlink:href="#DejaVuSans-38" x="488.818359"/>
     <use xlink:href="#DejaVuSans-33" x="552.441406"/>
    </g>
    <!-- samples = 19 -->
    <g transform="translate(4962.481249 19011.301141) scale(1.163348 -1.163348)">
     <use xlink:href="#DejaVuSans-73"/>
     <use xlink:href="#DejaVuSans-61" x="52.099609"/>
     <use xlink:href="#DejaVuSans-6d" x="113.378906"/>
     <use xlink:href="#DejaVuSans-70" x="210.791016"/>
     <use xlink:href="#DejaVuSans-6c" x="274.267578"/>
     <use xlink:href="#DejaVuSans-65" x="302.050781"/>
     <use xlink:href="#DejaVuSans-73" x="363.574219"/>
     <use xlink:href="#DejaVuSans-20" x="415.673828"/>
     <use xlink:href="#DejaVuSans-3d" x="447.460938"/>
     <use xlink:href="#DejaVuSans-20" x="531.25"/>
     <use xlink:href="#DejaVuSans-31" x="563.037109"/>
     <use xlink:href="#DejaVuSans-39" x="626.660156"/>
    </g>
    <!-- value = [23, 8] -->
    <g transform="translate(4926.008463 19141.5707) scale(1.163348 -1.163348)">
     <use xlink:href="#DejaVuSans-76"/>
     <use xlink:href="#DejaVuSans-61" x="59.179688"/>
     <use xlink:href="#DejaVuSans-6c" x="120.458984"/>
     <use xlink:href="#DejaVuSans-75" x="148.242188"/>
     <use xlink:href="#DejaVuSans-65" x="211.621094"/>
     <use xlink:href="#DejaVuSans-20" x="273.144531"/>
     <use xlink:href="#DejaVuSans-3d" x="304.931641"/>
     <use xlink:href="#DejaVuSans-20" x="388.720703"/>
     <use xlink:href="#DejaVuSans-5b" x="420.507812"/>
     <use xlink:href="#DejaVuSans-32" x="459.521484"/>
     <use xlink:href="#DejaVuSans-33" x="523.144531"/>
     <use xlink:href="#DejaVuSans-2c" x="586.767578"/>
     <use xlink:href="#DejaVuSans-20" x="618.554688"/>
     <use xlink:href="#DejaVuSans-38" x="650.341797"/>
     <use xlink:href="#DejaVuSans-5d" x="713.964844"/>
    </g>
   </g>
   <g id="patch_14">
    <path d="M 1487.778165 14307.311616 
Q 1751.69459 12209.601708 2015.750577 10110.78251 
" style="fill: none; stroke: #000000; stroke-linecap: round"/>
    <path d="M 1516.671868 14264.046014 
L 1487.778165 14307.311616 
L 1470.501905 14258.237293 
" style="fill: none; stroke: #000000; stroke-linecap: round"/>
   </g>
   <g id="text_7">
    <g id="patch_15">
     <path d="M 973.474532 14777.09864 
L 1942.525468 14777.09864 
L 1942.525468 14310.90136 
L 973.474532 14310.90136 
z
" style="fill: #f2c09c; stroke: #000000; stroke-linejoin: miter"/>
    </g>
    <!-- gini = 0.444 -->
    <g transform="translate(1099.652377 14445.831583) scale(1.163348 -1.163348)">
     <use xlink:href="#DejaVuSans-67"/>
     <use xlink:href="#DejaVuSans-69" x="63.476562"/>
     <use xlink:href="#DejaVuSans-6e" x="91.259766"/>
     <use xlink:href="#DejaVuSans-69" x="154.638672"/>
     <use xlink:href="#DejaVuSans-20" x="182.421875"/>
     <use xlink:href="#DejaVuSans-3d" x="214.208984"/>
     <use xlink:href="#DejaVuSans-20" x="297.998047"/>
     <use xlink:href="#DejaVuSans-30" x="329.785156"/>
     <use xlink:href="#DejaVuSans-2e" x="393.408203"/>
     <use xlink:href="#DejaVuSans-34" x="425.195312"/>
     <use xlink:href="#DejaVuSans-34" x="488.818359"/>
     <use xlink:href="#DejaVuSans-34" x="552.441406"/>
    </g>
    <!-- samples = 16 -->
    <g transform="translate(1056.481249 14576.101141) scale(1.163348 -1.163348)">
     <defs>
      <path id="DejaVuSans-36" d="M 2113 2584 
Q 1688 2584 1439 2293 
Q 1191 2003 1191 1497 
Q 1191 994 1439 701 
Q 1688 409 2113 409 
Q 2538 409 2786 701 
Q 3034 994 3034 1497 
Q 3034 2003 2786 2293 
Q 2538 2584 2113 2584 
z
M 3366 4563 
L 3366 3988 
Q 3128 4100 2886 4159 
Q 2644 4219 2406 4219 
Q 1781 4219 1451 3797 
Q 1122 3375 1075 2522 
Q 1259 2794 1537 2939 
Q 1816 3084 2150 3084 
Q 2853 3084 3261 2657 
Q 3669 2231 3669 1497 
Q 3669 778 3244 343 
Q 2819 -91 2113 -91 
Q 1303 -91 875 529 
Q 447 1150 447 2328 
Q 447 3434 972 4092 
Q 1497 4750 2381 4750 
Q 2619 4750 2861 4703 
Q 3103 4656 3366 4563 
z
" transform="scale(0.015625)"/>
     </defs>
     <use xlink:href="#DejaVuSans-73"/>
     <use xlink:href="#DejaVuSans-61" x="52.099609"/>
     <use xlink:href="#DejaVuSans-6d" x="113.378906"/>
     <use xlink:href="#DejaVuSans-70" x="210.791016"/>
     <use xlink:href="#DejaVuSans-6c" x="274.267578"/>
     <use xlink:href="#DejaVuSans-65" x="302.050781"/>
     <use xlink:href="#DejaVuSans-73" x="363.574219"/>
     <use xlink:href="#DejaVuSans-20" x="415.673828"/>
     <use xlink:href="#DejaVuSans-3d" x="447.460938"/>
     <use xlink:href="#DejaVuSans-20" x="531.25"/>
     <use xlink:href="#DejaVuSans-31" x="563.037109"/>
     <use xlink:href="#DejaVuSans-36" x="626.660156"/>
    </g>
    <!-- value = [16, 8] -->
    <g transform="translate(1020.008463 14706.3707) scale(1.163348 -1.163348)">
     <use xlink:href="#DejaVuSans-76"/>
     <use xlink:href="#DejaVuSans-61" x="59.179688"/>
     <use xlink:href="#DejaVuSans-6c" x="120.458984"/>
     <use xlink:href="#DejaVuSans-75" x="148.242188"/>
     <use xlink:href="#DejaVuSans-65" x="211.621094"/>
     <use xlink:href="#DejaVuSans-20" x="273.144531"/>
     <use xlink:href="#DejaVuSans-3d" x="304.931641"/>
     <use xlink:href="#DejaVuSans-20" x="388.720703"/>
     <use xlink:href="#DejaVuSans-5b" x="420.507812"/>
     <use xlink:href="#DejaVuSans-31" x="459.521484"/>
     <use xlink:href="#DejaVuSans-36" x="523.144531"/>
     <use xlink:href="#DejaVuSans-2c" x="586.767578"/>
     <use xlink:href="#DejaVuSans-20" x="618.554688"/>
     <use xlink:href="#DejaVuSans-38" x="650.341797"/>
     <use xlink:href="#DejaVuSans-5d" x="713.964844"/>
    </g>
   </g>
   <g id="patch_16">
    <path d="M 2536.026619 14242.172868 
Q 2276.207852 12177.03273 2016.249523 10110.783304 
" style="fill: none; stroke: #000000; stroke-linecap: round"/>
    <path d="M 2553.302879 14193.098544 
L 2536.026619 14242.172868 
L 2507.132916 14198.907265 
" style="fill: none; stroke: #000000; stroke-linecap: round"/>
   </g>
   <g id="text_8">
    <g id="patch_17">
     <path d="M 2052.465515 14842.233419 
L 3095.534485 14842.233419 
L 3095.534485 14245.766581 
L 2052.465515 14245.766581 
z
" style="fill: #fbebe0; stroke: #000000; stroke-linejoin: miter"/>
    </g>
    <!-- x[9] &lt;= 0.5 -->
    <g transform="translate(2230.212407 14380.696804) scale(1.163348 -1.163348)">
     <use xlink:href="#DejaVuSans-78"/>
     <use xlink:href="#DejaVuSans-5b" x="59.179688"/>
     <use xlink:href="#DejaVuSans-39" x="98.193359"/>
     <use xlink:href="#DejaVuSans-5d" x="161.816406"/>
     <use xlink:href="#DejaVuSans-20" x="200.830078"/>
     <use xlink:href="#DejaVuSans-3c" x="232.617188"/>
     <use xlink:href="#DejaVuSans-3d" x="316.40625"/>
     <use xlink:href="#DejaVuSans-20" x="400.195312"/>
     <use xlink:href="#DejaVuSans-30" x="431.982422"/>
     <use xlink:href="#DejaVuSans-2e" x="495.605469"/>
     <use xlink:href="#DejaVuSans-35" x="527.392578"/>
    </g>
    <!-- gini = 0.496 -->
    <g transform="translate(2215.652377 14510.966362) scale(1.163348 -1.163348)">
     <use xlink:href="#DejaVuSans-67"/>
     <use xlink:href="#DejaVuSans-69" x="63.476562"/>
     <use xlink:href="#DejaVuSans-6e" x="91.259766"/>
     <use xlink:href="#DejaVuSans-69" x="154.638672"/>
     <use xlink:href="#DejaVuSans-20" x="182.421875"/>
     <use xlink:href="#DejaVuSans-3d" x="214.208984"/>
     <use xlink:href="#DejaVuSans-20" x="297.998047"/>
     <use xlink:href="#DejaVuSans-30" x="329.785156"/>
     <use xlink:href="#DejaVuSans-2e" x="393.408203"/>
     <use xlink:href="#DejaVuSans-34" x="425.195312"/>
     <use xlink:href="#DejaVuSans-39" x="488.818359"/>
     <use xlink:href="#DejaVuSans-36" x="552.441406"/>
    </g>
    <!-- samples = 21 -->
    <g transform="translate(2172.481249 14641.235921) scale(1.163348 -1.163348)">
     <use xlink:href="#DejaVuSans-73"/>
     <use xlink:href="#DejaVuSans-61" x="52.099609"/>
     <use xlink:href="#DejaVuSans-6d" x="113.378906"/>
     <use xlink:href="#DejaVuSans-70" x="210.791016"/>
     <use xlink:href="#DejaVuSans-6c" x="274.267578"/>
     <use xlink:href="#DejaVuSans-65" x="302.050781"/>
     <use xlink:href="#DejaVuSans-73" x="363.574219"/>
     <use xlink:href="#DejaVuSans-20" x="415.673828"/>
     <use xlink:href="#DejaVuSans-3d" x="447.460938"/>
     <use xlink:href="#DejaVuSans-20" x="531.25"/>
     <use xlink:href="#DejaVuSans-32" x="563.037109"/>
     <use xlink:href="#DejaVuSans-31" x="626.660156"/>
    </g>
    <!-- value = [19, 16] -->
    <g transform="translate(2098.999446 14771.505479) scale(1.163348 -1.163348)">
     <use xlink:href="#DejaVuSans-76"/>
     <use xlink:href="#DejaVuSans-61" x="59.179688"/>
     <use xlink:href="#DejaVuSans-6c" x="120.458984"/>
     <use xlink:href="#DejaVuSans-75" x="148.242188"/>
     <use xlink:href="#DejaVuSans-65" x="211.621094"/>
     <use xlink:href="#DejaVuSans-20" x="273.144531"/>
     <use xlink:href="#DejaVuSans-3d" x="304.931641"/>
     <use xlink:href="#DejaVuSans-20" x="388.720703"/>
     <use xlink:href="#DejaVuSans-5b" x="420.507812"/>
     <use xlink:href="#DejaVuSans-31" x="459.521484"/>
     <use xlink:href="#DejaVuSans-39" x="523.144531"/>
     <use xlink:href="#DejaVuSans-2c" x="586.767578"/>
     <use xlink:href="#DejaVuSans-20" x="618.554688"/>
     <use xlink:href="#DejaVuSans-31" x="650.341797"/>
     <use xlink:href="#DejaVuSans-36" x="713.964844"/>
     <use xlink:href="#DejaVuSans-5d" x="777.587891"/>
    </g>
   </g>
   <g id="patch_18">
    <path d="M 4843.973381 14242.172868 
Q 5103.792148 12177.03273 5363.750477 10110.783304 
" style="fill: none; stroke: #000000; stroke-linecap: round"/>
    <path d="M 4872.867084 14198.907265 
L 4843.973381 14242.172868 
L 4826.697121 14193.098544 
" style="fill: none; stroke: #000000; stroke-linecap: round"/>
   </g>
   <g id="text_9">
    <g id="patch_19">
     <path d="M 4284.465515 14842.233419 
L 5327.534485 14842.233419 
L 5327.534485 14245.766581 
L 4284.465515 14245.766581 
z
" style="fill: #e89253; stroke: #000000; stroke-linejoin: miter"/>
    </g>
    <!-- x[31] &lt;= 0.5 -->
    <g transform="translate(4425.20339 14380.696804) scale(1.163348 -1.163348)">
     <use xlink:href="#DejaVuSans-78"/>
     <use xlink:href="#DejaVuSans-5b" x="59.179688"/>
     <use xlink:href="#DejaVuSans-33" x="98.193359"/>
     <use xlink:href="#DejaVuSans-31" x="161.816406"/>
     <use xlink:href="#DejaVuSans-5d" x="225.439453"/>
     <use xlink:href="#DejaVuSans-20" x="264.453125"/>
     <use xlink:href="#DejaVuSans-3c" x="296.240234"/>
     <use xlink:href="#DejaVuSans-3d" x="380.029297"/>
     <use xlink:href="#DejaVuSans-20" x="463.818359"/>
     <use xlink:href="#DejaVuSans-30" x="495.605469"/>
     <use xlink:href="#DejaVuSans-2e" x="559.228516"/>
     <use xlink:href="#DejaVuSans-35" x="591.015625"/>
    </g>
    <!-- gini = 0.208 -->
    <g transform="translate(4447.652377 14510.966362) scale(1.163348 -1.163348)">
     <use xlink:href="#DejaVuSans-67"/>
     <use xlink:href="#DejaVuSans-69" x="63.476562"/>
     <use xlink:href="#DejaVuSans-6e" x="91.259766"/>
     <use xlink:href="#DejaVuSans-69" x="154.638672"/>
     <use xlink:href="#DejaVuSans-20" x="182.421875"/>
     <use xlink:href="#DejaVuSans-3d" x="214.208984"/>
     <use xlink:href="#DejaVuSans-20" x="297.998047"/>
     <use xlink:href="#DejaVuSans-30" x="329.785156"/>
     <use xlink:href="#DejaVuSans-2e" x="393.408203"/>
     <use xlink:href="#DejaVuSans-32" x="425.195312"/>
     <use xlink:href="#DejaVuSans-30" x="488.818359"/>
     <use xlink:href="#DejaVuSans-38" x="552.441406"/>
    </g>
    <!-- samples = 53 -->
    <g transform="translate(4404.481249 14641.235921) scale(1.163348 -1.163348)">
     <use xlink:href="#DejaVuSans-73"/>
     <use xlink:href="#DejaVuSans-61" x="52.099609"/>
     <use xlink:href="#DejaVuSans-6d" x="113.378906"/>
     <use xlink:href="#DejaVuSans-70" x="210.791016"/>
     <use xlink:href="#DejaVuSans-6c" x="274.267578"/>
     <use xlink:href="#DejaVuSans-65" x="302.050781"/>
     <use xlink:href="#DejaVuSans-73" x="363.574219"/>
     <use xlink:href="#DejaVuSans-20" x="415.673828"/>
     <use xlink:href="#DejaVuSans-3d" x="447.460938"/>
     <use xlink:href="#DejaVuSans-20" x="531.25"/>
     <use xlink:href="#DejaVuSans-35" x="563.037109"/>
     <use xlink:href="#DejaVuSans-33" x="626.660156"/>
    </g>
    <!-- value = [75, 10] -->
    <g transform="translate(4330.999446 14771.505479) scale(1.163348 -1.163348)">
     <use xlink:href="#DejaVuSans-76"/>
     <use xlink:href="#DejaVuSans-61" x="59.179688"/>
     <use xlink:href="#DejaVuSans-6c" x="120.458984"/>
     <use xlink:href="#DejaVuSans-75" x="148.242188"/>
     <use xlink:href="#DejaVuSans-65" x="211.621094"/>
     <use xlink:href="#DejaVuSans-20" x="273.144531"/>
     <use xlink:href="#DejaVuSans-3d" x="304.931641"/>
     <use xlink:href="#DejaVuSans-20" x="388.720703"/>
     <use xlink:href="#DejaVuSans-5b" x="420.507812"/>
     <use xlink:href="#DejaVuSans-37" x="459.521484"/>
     <use xlink:href="#DejaVuSans-35" x="523.144531"/>
     <use xlink:href="#DejaVuSans-2c" x="586.767578"/>
     <use xlink:href="#DejaVuSans-20" x="618.554688"/>
     <use xlink:href="#DejaVuSans-31" x="650.341797"/>
     <use xlink:href="#DejaVuSans-30" x="713.964844"/>
     <use xlink:href="#DejaVuSans-5d" x="777.587891"/>
    </g>
   </g>
   <g id="patch_20">
    <path d="M 5892.221835 14307.311616 
Q 5628.30541 12209.601708 5364.249423 10110.78251 
" style="fill: none; stroke: #000000; stroke-linecap: round"/>
    <path d="M 5909.498095 14258.237293 
L 5892.221835 14307.311616 
L 5863.328132 14264.046014 
" style="fill: none; stroke: #000000; stroke-linecap: round"/>
   </g>
   <g id="text_10">
    <g id="patch_21">
     <path d="M 5400.465515 14777.09864 
L 6443.534485 14777.09864 
L 6443.534485 14310.90136 
L 5400.465515 14310.90136 
z
" style="fill: #eba069; stroke: #000000; stroke-linejoin: miter"/>
    </g>
    <!-- gini = 0.316 -->
    <g transform="translate(5563.652377 14445.831583) scale(1.163348 -1.163348)">
     <use xlink:href="#DejaVuSans-67"/>
     <use xlink:href="#DejaVuSans-69" x="63.476562"/>
     <use xlink:href="#DejaVuSans-6e" x="91.259766"/>
     <use xlink:href="#DejaVuSans-69" x="154.638672"/>
     <use xlink:href="#DejaVuSans-20" x="182.421875"/>
     <use xlink:href="#DejaVuSans-3d" x="214.208984"/>
     <use xlink:href="#DejaVuSans-20" x="297.998047"/>
     <use xlink:href="#DejaVuSans-30" x="329.785156"/>
     <use xlink:href="#DejaVuSans-2e" x="393.408203"/>
     <use xlink:href="#DejaVuSans-33" x="425.195312"/>
     <use xlink:href="#DejaVuSans-31" x="488.818359"/>
     <use xlink:href="#DejaVuSans-36" x="552.441406"/>
    </g>
    <!-- samples = 36 -->
    <g transform="translate(5520.481249 14576.101141) scale(1.163348 -1.163348)">
     <use xlink:href="#DejaVuSans-73"/>
     <use xlink:href="#DejaVuSans-61" x="52.099609"/>
     <use xlink:href="#DejaVuSans-6d" x="113.378906"/>
     <use xlink:href="#DejaVuSans-70" x="210.791016"/>
     <use xlink:href="#DejaVuSans-6c" x="274.267578"/>
     <use xlink:href="#DejaVuSans-65" x="302.050781"/>
     <use xlink:href="#DejaVuSans-73" x="363.574219"/>
     <use xlink:href="#DejaVuSans-20" x="415.673828"/>
     <use xlink:href="#DejaVuSans-3d" x="447.460938"/>
     <use xlink:href="#DejaVuSans-20" x="531.25"/>
     <use xlink:href="#DejaVuSans-33" x="563.037109"/>
     <use xlink:href="#DejaVuSans-36" x="626.660156"/>
    </g>
    <!-- value = [45, 11] -->
    <g transform="translate(5446.999446 14706.3707) scale(1.163348 -1.163348)">
     <use xlink:href="#DejaVuSans-76"/>
     <use xlink:href="#DejaVuSans-61" x="59.179688"/>
     <use xlink:href="#DejaVuSans-6c" x="120.458984"/>
     <use xlink:href="#DejaVuSans-75" x="148.242188"/>
     <use xlink:href="#DejaVuSans-65" x="211.621094"/>
     <use xlink:href="#DejaVuSans-20" x="273.144531"/>
     <use xlink:href="#DejaVuSans-3d" x="304.931641"/>
     <use xlink:href="#DejaVuSans-20" x="388.720703"/>
     <use xlink:href="#DejaVuSans-5b" x="420.507812"/>
     <use xlink:href="#DejaVuSans-34" x="459.521484"/>
     <use xlink:href="#DejaVuSans-35" x="523.144531"/>
     <use xlink:href="#DejaVuSans-2c" x="586.767578"/>
     <use xlink:href="#DejaVuSans-20" x="618.554688"/>
     <use xlink:href="#DejaVuSans-31" x="650.341797"/>
     <use xlink:href="#DejaVuSans-31" x="713.964844"/>
     <use xlink:href="#DejaVuSans-5d" x="777.587891"/>
    </g>
   </g>
   <g id="patch_22">
    <path d="M 2129.854569 9807.146604 
Q 2909.376426 7741.832782 3689.293083 5675.472951 
" style="fill: none; stroke: #000000; stroke-linecap: round"/>
    <path d="M 2168.054691 9771.82651 
L 2129.854569 9807.146604 
L 2124.518567 9755.39445 
" style="fill: none; stroke: #000000; stroke-linecap: round"/>
   </g>
   <g id="text_11">
    <g id="patch_23">
     <path d="M 1494.465515 10407.033419 
L 2537.534485 10407.033419 
L 2537.534485 9810.566581 
L 1494.465515 9810.566581 
z
" style="fill: #f7d7c1; stroke: #000000; stroke-linejoin: miter"/>
    </g>
    <!-- x[29] &lt;= 0.5 -->
    <g transform="translate(1635.20339 9945.496804) scale(1.163348 -1.163348)">
     <use xlink:href="#DejaVuSans-78"/>
     <use xlink:href="#DejaVuSans-5b" x="59.179688"/>
     <use xlink:href="#DejaVuSans-32" x="98.193359"/>
     <use xlink:href="#DejaVuSans-39" x="161.816406"/>
     <use xlink:href="#DejaVuSans-5d" x="225.439453"/>
     <use xlink:href="#DejaVuSans-20" x="264.453125"/>
     <use xlink:href="#DejaVuSans-3c" x="296.240234"/>
     <use xlink:href="#DejaVuSans-3d" x="380.029297"/>
     <use xlink:href="#DejaVuSans-20" x="463.818359"/>
     <use xlink:href="#DejaVuSans-30" x="495.605469"/>
     <use xlink:href="#DejaVuSans-2e" x="559.228516"/>
     <use xlink:href="#DejaVuSans-35" x="591.015625"/>
    </g>
    <!-- gini = 0.483 -->
    <g transform="translate(1657.652377 10075.766362) scale(1.163348 -1.163348)">
     <use xlink:href="#DejaVuSans-67"/>
     <use xlink:href="#DejaVuSans-69" x="63.476562"/>
     <use xlink:href="#DejaVuSans-6e" x="91.259766"/>
     <use xlink:href="#DejaVuSans-69" x="154.638672"/>
     <use xlink:href="#DejaVuSans-20" x="182.421875"/>
     <use xlink:href="#DejaVuSans-3d" x="214.208984"/>
     <use xlink:href="#DejaVuSans-20" x="297.998047"/>
     <use xlink:href="#DejaVuSans-30" x="329.785156"/>
     <use xlink:href="#DejaVuSans-2e" x="393.408203"/>
     <use xlink:href="#DejaVuSans-34" x="425.195312"/>
     <use xlink:href="#DejaVuSans-38" x="488.818359"/>
     <use xlink:href="#DejaVuSans-33" x="552.441406"/>
    </g>
    <!-- samples = 37 -->
    <g transform="translate(1614.481249 10206.035921) scale(1.163348 -1.163348)">
     <use xlink:href="#DejaVuSans-73"/>
     <use xlink:href="#DejaVuSans-61" x="52.099609"/>
     <use xlink:href="#DejaVuSans-6d" x="113.378906"/>
     <use xlink:href="#DejaVuSans-70" x="210.791016"/>
     <use xlink:href="#DejaVuSans-6c" x="274.267578"/>
     <use xlink:href="#DejaVuSans-65" x="302.050781"/>
     <use xlink:href="#DejaVuSans-73" x="363.574219"/>
     <use xlink:href="#DejaVuSans-20" x="415.673828"/>
     <use xlink:href="#DejaVuSans-3d" x="447.460938"/>
     <use xlink:href="#DejaVuSans-20" x="531.25"/>
     <use xlink:href="#DejaVuSans-33" x="563.037109"/>
     <use xlink:href="#DejaVuSans-37" x="626.660156"/>
    </g>
    <!-- value = [35, 24] -->
    <g transform="translate(1540.999446 10336.305479) scale(1.163348 -1.163348)">
     <use xlink:href="#DejaVuSans-76"/>
     <use xlink:href="#DejaVuSans-61" x="59.179688"/>
     <use xlink:href="#DejaVuSans-6c" x="120.458984"/>
     <use xlink:href="#DejaVuSans-75" x="148.242188"/>
     <use xlink:href="#DejaVuSans-65" x="211.621094"/>
     <use xlink:href="#DejaVuSans-20" x="273.144531"/>
     <use xlink:href="#DejaVuSans-3d" x="304.931641"/>
     <use xlink:href="#DejaVuSans-20" x="388.720703"/>
     <use xlink:href="#DejaVuSans-5b" x="420.507812"/>
     <use xlink:href="#DejaVuSans-33" x="459.521484"/>
     <use xlink:href="#DejaVuSans-35" x="523.144531"/>
     <use xlink:href="#DejaVuSans-2c" x="586.767578"/>
     <use xlink:href="#DejaVuSans-20" x="618.554688"/>
     <use xlink:href="#DejaVuSans-32" x="650.341797"/>
     <use xlink:href="#DejaVuSans-34" x="713.964844"/>
     <use xlink:href="#DejaVuSans-5d" x="777.587891"/>
    </g>
   </g>
   <g id="text_12">
    <!-- True   -->
    <g transform="translate(2532.02494 7891.2) scale(1.163348 -1.163348)">
     <defs>
      <path id="DejaVuSans-54" d="M -19 4666 
L 3928 4666 
L 3928 4134 
L 2272 4134 
L 2272 0 
L 1638 0 
L 1638 4134 
L -19 4134 
L -19 4666 
z
" transform="scale(0.015625)"/>
      <path id="DejaVuSans-72" d="M 2631 2963 
Q 2534 3019 2420 3045 
Q 2306 3072 2169 3072 
Q 1681 3072 1420 2755 
Q 1159 2438 1159 1844 
L 1159 0 
L 581 0 
L 581 3500 
L 1159 3500 
L 1159 2956 
Q 1341 3275 1631 3429 
Q 1922 3584 2338 3584 
Q 2397 3584 2469 3576 
Q 2541 3569 2628 3553 
L 2631 2963 
z
" transform="scale(0.015625)"/>
     </defs>
     <use xlink:href="#DejaVuSans-54"/>
     <use xlink:href="#DejaVuSans-72" x="46.333984"/>
     <use xlink:href="#DejaVuSans-75" x="87.447266"/>
     <use xlink:href="#DejaVuSans-65" x="150.826172"/>
     <use xlink:href="#DejaVuSans-20" x="212.349609"/>
     <use xlink:href="#DejaVuSans-20" x="244.136719"/>
    </g>
   </g>
   <g id="patch_24">
    <path d="M 5250.145431 9807.146604 
Q 4470.623574 7741.832782 3690.706917 5675.472951 
" style="fill: none; stroke: #000000; stroke-linecap: round"/>
    <path d="M 5255.481433 9755.39445 
L 5250.145431 9807.146604 
L 5211.945309 9771.82651 
" style="fill: none; stroke: #000000; stroke-linecap: round"/>
   </g>
   <g id="text_13">
    <g id="patch_25">
     <path d="M 4805.456498 10407.033419 
L 5922.543502 10407.033419 
L 5922.543502 9810.566581 
L 4805.456498 9810.566581 
z
" style="fill: #ea975c; stroke: #000000; stroke-linejoin: miter"/>
    </g>
    <!-- x[34] &lt;= 0.5 -->
    <g transform="translate(4983.20339 9945.496804) scale(1.163348 -1.163348)">
     <use xlink:href="#DejaVuSans-78"/>
     <use xlink:href="#DejaVuSans-5b" x="59.179688"/>
     <use xlink:href="#DejaVuSans-33" x="98.193359"/>
     <use xlink:href="#DejaVuSans-34" x="161.816406"/>
     <use xlink:href="#DejaVuSans-5d" x="225.439453"/>
     <use xlink:href="#DejaVuSans-20" x="264.453125"/>
     <use xlink:href="#DejaVuSans-3c" x="296.240234"/>
     <use xlink:href="#DejaVuSans-3d" x="380.029297"/>
     <use xlink:href="#DejaVuSans-20" x="463.818359"/>
     <use xlink:href="#DejaVuSans-30" x="495.605469"/>
     <use xlink:href="#DejaVuSans-2e" x="559.228516"/>
     <use xlink:href="#DejaVuSans-35" x="591.015625"/>
    </g>
    <!-- gini = 0.254 -->
    <g transform="translate(5005.652377 10075.766362) scale(1.163348 -1.163348)">
     <use xlink:href="#DejaVuSans-67"/>
     <use xlink:href="#DejaVuSans-69" x="63.476562"/>
     <use xlink:href="#DejaVuSans-6e" x="91.259766"/>
     <use xlink:href="#DejaVuSans-69" x="154.638672"/>
     <use xlink:href="#DejaVuSans-20" x="182.421875"/>
     <use xlink:href="#DejaVuSans-3d" x="214.208984"/>
     <use xlink:href="#DejaVuSans-20" x="297.998047"/>
     <use xlink:href="#DejaVuSans-30" x="329.785156"/>
     <use xlink:href="#DejaVuSans-2e" x="393.408203"/>
     <use xlink:href="#DejaVuSans-32" x="425.195312"/>
     <use xlink:href="#DejaVuSans-35" x="488.818359"/>
     <use xlink:href="#DejaVuSans-34" x="552.441406"/>
    </g>
    <!-- samples = 89 -->
    <g transform="translate(4962.481249 10206.035921) scale(1.163348 -1.163348)">
     <use xlink:href="#DejaVuSans-73"/>
     <use xlink:href="#DejaVuSans-61" x="52.099609"/>
     <use xlink:href="#DejaVuSans-6d" x="113.378906"/>
     <use xlink:href="#DejaVuSans-70" x="210.791016"/>
     <use xlink:href="#DejaVuSans-6c" x="274.267578"/>
     <use xlink:href="#DejaVuSans-65" x="302.050781"/>
     <use xlink:href="#DejaVuSans-73" x="363.574219"/>
     <use xlink:href="#DejaVuSans-20" x="415.673828"/>
     <use xlink:href="#DejaVuSans-3d" x="447.460938"/>
     <use xlink:href="#DejaVuSans-20" x="531.25"/>
     <use xlink:href="#DejaVuSans-38" x="563.037109"/>
     <use xlink:href="#DejaVuSans-39" x="626.660156"/>
    </g>
    <!-- value = [120, 21] -->
    <g transform="translate(4851.990429 10336.305479) scale(1.163348 -1.163348)">
     <use xlink:href="#DejaVuSans-76"/>
     <use xlink:href="#DejaVuSans-61" x="59.179688"/>
     <use xlink:href="#DejaVuSans-6c" x="120.458984"/>
     <use xlink:href="#DejaVuSans-75" x="148.242188"/>
     <use xlink:href="#DejaVuSans-65" x="211.621094"/>
     <use xlink:href="#DejaVuSans-20" x="273.144531"/>
     <use xlink:href="#DejaVuSans-3d" x="304.931641"/>
     <use xlink:href="#DejaVuSans-20" x="388.720703"/>
     <use xlink:href="#DejaVuSans-5b" x="420.507812"/>
     <use xlink:href="#DejaVuSans-31" x="459.521484"/>
     <use xlink:href="#DejaVuSans-32" x="523.144531"/>
     <use xlink:href="#DejaVuSans-30" x="586.767578"/>
     <use xlink:href="#DejaVuSans-2c" x="650.390625"/>
     <use xlink:href="#DejaVuSans-20" x="682.177734"/>
     <use xlink:href="#DejaVuSans-32" x="713.964844"/>
     <use xlink:href="#DejaVuSans-31" x="777.587891"/>
     <use xlink:href="#DejaVuSans-5d" x="841.210938"/>
    </g>
   </g>
   <g id="text_14">
    <!--   False -->
    <g transform="translate(4527 7891.2) scale(1.163348 -1.163348)">
     <defs>
      <path id="DejaVuSans-46" d="M 628 4666 
L 3309 4666 
L 3309 4134 
L 1259 4134 
L 1259 2759 
L 3109 2759 
L 3109 2228 
L 1259 2228 
L 1259 0 
L 628 0 
L 628 4666 
z
" transform="scale(0.015625)"/>
     </defs>
     <use xlink:href="#DejaVuSans-20"/>
     <use xlink:href="#DejaVuSans-20" x="31.787109"/>
     <use xlink:href="#DejaVuSans-46" x="63.574219"/>
     <use xlink:href="#DejaVuSans-61" x="111.96875"/>
     <use xlink:href="#DejaVuSans-6c" x="173.248047"/>
     <use xlink:href="#DejaVuSans-73" x="201.03125"/>
     <use xlink:href="#DejaVuSans-65" x="253.130859"/>
    </g>
   </g>
   <g id="patch_26">
    <path d="M 3690 5673.6 
Q 3690 5673.6 3690 5673.6 
" style="fill: none; stroke: #000000; stroke-linecap: round"/>
   </g>
   <g id="text_15">
    <g id="patch_27">
     <path d="M 3131.456498 5971.833419 
L 4248.543502 5971.833419 
L 4248.543502 5375.366581 
L 3131.456498 5375.366581 
z
" style="fill: #eda672; stroke: #000000; stroke-linejoin: miter"/>
    </g>
    <!-- x[21] &lt;= 0.5 -->
    <g transform="translate(3309.20339 5510.296804) scale(1.163348 -1.163348)">
     <use xlink:href="#DejaVuSans-78"/>
     <use xlink:href="#DejaVuSans-5b" x="59.179688"/>
     <use xlink:href="#DejaVuSans-32" x="98.193359"/>
     <use xlink:href="#DejaVuSans-31" x="161.816406"/>
     <use xlink:href="#DejaVuSans-5d" x="225.439453"/>
     <use xlink:href="#DejaVuSans-20" x="264.453125"/>
     <use xlink:href="#DejaVuSans-3c" x="296.240234"/>
     <use xlink:href="#DejaVuSans-3d" x="380.029297"/>
     <use xlink:href="#DejaVuSans-20" x="463.818359"/>
     <use xlink:href="#DejaVuSans-30" x="495.605469"/>
     <use xlink:href="#DejaVuSans-2e" x="559.228516"/>
     <use xlink:href="#DejaVuSans-35" x="591.015625"/>
    </g>
    <!-- gini = 0.349 -->
    <g transform="translate(3331.652377 5640.566362) scale(1.163348 -1.163348)">
     <use xlink:href="#DejaVuSans-67"/>
     <use xlink:href="#DejaVuSans-69" x="63.476562"/>
     <use xlink:href="#DejaVuSans-6e" x="91.259766"/>
     <use xlink:href="#DejaVuSans-69" x="154.638672"/>
     <use xlink:href="#DejaVuSans-20" x="182.421875"/>
     <use xlink:href="#DejaVuSans-3d" x="214.208984"/>
     <use xlink:href="#DejaVuSans-20" x="297.998047"/>
     <use xlink:href="#DejaVuSans-30" x="329.785156"/>
     <use xlink:href="#DejaVuSans-2e" x="393.408203"/>
     <use xlink:href="#DejaVuSans-33" x="425.195312"/>
     <use xlink:href="#DejaVuSans-34" x="488.818359"/>
     <use xlink:href="#DejaVuSans-39" x="552.441406"/>
    </g>
    <!-- samples = 126 -->
    <g transform="translate(3251.472232 5770.835921) scale(1.163348 -1.163348)">
     <use xlink:href="#DejaVuSans-73"/>
     <use xlink:href="#DejaVuSans-61" x="52.099609"/>
     <use xlink:href="#DejaVuSans-6d" x="113.378906"/>
     <use xlink:href="#DejaVuSans-70" x="210.791016"/>
     <use xlink:href="#DejaVuSans-6c" x="274.267578"/>
     <use xlink:href="#DejaVuSans-65" x="302.050781"/>
     <use xlink:href="#DejaVuSans-73" x="363.574219"/>
     <use xlink:href="#DejaVuSans-20" x="415.673828"/>
     <use xlink:href="#DejaVuSans-3d" x="447.460938"/>
     <use xlink:href="#DejaVuSans-20" x="531.25"/>
     <use xlink:href="#DejaVuSans-31" x="563.037109"/>
     <use xlink:href="#DejaVuSans-32" x="626.660156"/>
     <use xlink:href="#DejaVuSans-36" x="690.283203"/>
    </g>
    <!-- value = [155, 45] -->
    <g transform="translate(3177.990429 5901.105479) scale(1.163348 -1.163348)">
     <use xlink:href="#DejaVuSans-76"/>
     <use xlink:href="#DejaVuSans-61" x="59.179688"/>
     <use xlink:href="#DejaVuSans-6c" x="120.458984"/>
     <use xlink:href="#DejaVuSans-75" x="148.242188"/>
     <use xlink:href="#DejaVuSans-65" x="211.621094"/>
     <use xlink:href="#DejaVuSans-20" x="273.144531"/>
     <use xlink:href="#DejaVuSans-3d" x="304.931641"/>
     <use xlink:href="#DejaVuSans-20" x="388.720703"/>
     <use xlink:href="#DejaVuSans-5b" x="420.507812"/>
     <use xlink:href="#DejaVuSans-31" x="459.521484"/>
     <use xlink:href="#DejaVuSans-35" x="523.144531"/>
     <use xlink:href="#DejaVuSans-35" x="586.767578"/>
     <use xlink:href="#DejaVuSans-2c" x="650.390625"/>
     <use xlink:href="#DejaVuSans-20" x="682.177734"/>
     <use xlink:href="#DejaVuSans-34" x="713.964844"/>
     <use xlink:href="#DejaVuSans-35" x="777.587891"/>
     <use xlink:href="#DejaVuSans-5d" x="841.210938"/>
    </g>
   </g>
  </g>
 </g>
</svg>
